#!OML:ASF E:\Style4\Style4.ASF
:FULLY-SPECIFIED
:DEGREES
1571
root -0.0392285 18.2108 0.0571985 5.54861 -4.70206 3.49986
lowerback 1.16933 2.03749 0.92436
upperback -5.24983 2.82432 1.03699
thorax -6.10607 1.38308 0.377929
lowerneck 3.6569 -2.83918 -4.97203
upperneck 0.186459 -3.96885 2.72848
head -0.400153 -2.00854 1.74288
rclavicle -1.36167e-014 2.38542e-015
rhumerus -89.112 51.0582 -120.641
rradius 86.246
rwrist -3.3583
rhand 2.61269 28.2637
rfingers 7.12502
rthumb 28.0904 0.34715
lclavicle -1.36167e-014 2.38542e-015
lhumerus -28.0268 20.6884 19.4699
lradius 110.137
lwrist -14.9774
lhand -10.9301 34.9861
lfingers 7.12502
lthumb 15.0878 64.4162
rfemur -5.32128 11.0028 14.6539
rtibia 15.2908
rfoot -14.1638 -16.7719
rtoes -11.6489
lfemur 4.41894 -4.90355 -23.1464
ltibia 1.59028e-014
lfoot -11.3731 16.3147
ltoes -12.7995
1572
root -0.0317358 18.2116 0.0581989 5.57315 -4.77288 3.44386
lowerback 1.14143 2.02973 1.14782
upperback -5.25222 2.82745 1.12353
thorax -6.08657 1.37604 0.344069
lowerneck 3.71277 -2.82439 -4.89194
upperneck 0.202787 -3.94976 2.58595
head -0.40934 -1.99821 1.68364
rclavicle 3.73715e-014 2.14687e-014
rhumerus -89.0356 50.9838 -120.427
rradius 86.3448
rwrist -3.31903
rhand 2.6136 28.3801
rfingers 7.12502
rthumb 28.0913 0.463684
lclavicle 3.73715e-014 2.14687e-014
lhumerus -28.1028 20.6566 19.4825
lradius 110.145
lwrist -14.9113
lhand -10.9181 35.0771
lfingers 7.12502
lthumb 15.0994 64.5064
rfemur -5.34099 11.085 14.6813
rtibia 15.2676
rfoot -14.1199 -16.7991
rtoes -11.6616
lfemur 4.39533 -4.83509 -23.1117
ltibia -1.59028e-015
lfoot -11.3164 16.3504
ltoes -13.1709
1573
root -0.024284 18.2122 0.059414 5.58348 -4.81225 3.44033
lowerback 1.11375 2.01421 1.31244
upperback -5.24489 2.81698 1.20417
thorax -6.05945 1.36512 0.337884
lowerneck 3.77585 -2.7939 -4.95325
upperneck 0.198325 -3.91479 2.58184
head -0.421827 -1.981 1.69419
rclavicle -2.34566e-014 -5.56597e-015
rhumerus -88.931 50.9513 -120.201
rradius 86.468
rwrist -3.39138
rhand 2.6365 28.3708
rfingers 7.12502
rthumb 28.1132 0.457939
lclavicle -2.34566e-014 -5.56597e-015
lhumerus -28.1986 20.6324 19.521
lradius 110.099
lwrist -14.9087
lhand -10.893 35.1894
lfingers 7.12502
lthumb 15.1235 64.6168
rfemur -5.34582 11.0516 14.6483
rtibia 15.2425
rfoot -14.0753 -16.7493
rtoes -12.1771
lfemur 4.3949 -4.80199 -23.1389
ltibia 1.59028e-015
lfoot -11.2423 16.3305
ltoes -13.0679
1574
root -0.0179987 18.2122 0.0601599 5.57276 -4.85936 3.49986
lowerback 1.10277 1.9815 1.38555
upperback -5.23668 2.77904 1.26911
thorax -6.04451 1.34456 0.36747
lowerneck 3.84568 -2.75357 -4.97075
upperneck 0.195959 -3.86552 2.54407
head -0.436765 -1.95637 1.68615
rclavicle 2.28602e-014 4.77083e-015
rhumerus -88.886 50.94 -120.025
rradius 86.6124
rwrist -3.45878
rhand 2.77055 28.3335
rfingers 7.12502
rthumb 28.2413 0.441773
lclavicle 2.28602e-014 4.77083e-015
lhumerus -28.3272 20.5901 19.501
lradius 110.033
lwrist -14.9755
lhand -10.946 35.2306
lfingers 7.12502
lthumb 15.0726 64.6619
rfemur -5.35517 11.0419 14.5559
rtibia 15.2525
rfoot -14.0575 -16.7165
rtoes -12.5566
lfemur 4.40345 -4.76646 -23.2319
ltibia 1.59028e-015
lfoot -11.2523 16.3474
ltoes -13.2547
1575
root -0.011775 18.2111 0.061731 5.56069 -4.71408 3.57793
lowerback 1.08663 1.89602 1.47417
upperback -5.23813 2.66966 1.30367
thorax -6.03464 1.28697 0.361331
lowerneck 3.86704 -2.73495 -4.97002
upperneck 0.245498 -3.84235 2.50988
head -0.426455 -1.94507 1.67453
rclavicle -9.54166e-015 -2.38542e-015
rhumerus -88.9001 50.8114 -119.881
rradius 86.7329
rwrist -3.37293
rhand 3.31727 28.3427
rfingers 7.12502
rthumb 28.7637 0.538585
lclavicle -9.54166e-015 -2.38542e-015
lhumerus -28.4312 20.5014 19.4644
lradius 109.998
lwrist -14.9836
lhand -11.0972 35.4017
lfingers 7.12502
lthumb 14.9269 64.8438
rfemur -5.31231 11.0775 14.4835
rtibia 15.2832
rfoot -14.1411 -16.8624
rtoes -12.2465
lfemur 4.39659 -4.92429 -23.3181
ltibia -1.43125e-014
lfoot -11.2287 16.3651
ltoes -13.3874
1576
root -0.00632267 18.2106 0.0664371 5.56082 -4.38818 3.67323
lowerback 0.999883 1.78395 1.57622
upperback -5.21424 2.52244 1.33338
thorax -5.95681 1.21053 0.347722
lowerneck 3.8437 -2.73653 -5.03139
upperneck 0.322562 -3.84675 2.47251
head -0.397843 -1.9476 1.67176
rclavicle -1.2921e-014 -4.77083e-015
rhumerus -88.8149 50.6246 -119.601
rradius 86.8332
rwrist -3.28852
rhand 4.39026 28.3976
rfingers 7.12502
rthumb 29.7882 0.772188
lclavicle -1.2921e-014 -4.77083e-015
lhumerus -28.4309 20.4782 19.5375
lradius 109.957
lwrist -14.8923
lhand -11.1181 35.4008
lfingers 7.12502
lthumb 14.9067 64.8444
rfemur -5.21727 11.1577 14.4288
rtibia 15.3241
rfoot -14.3765 -17.1818
rtoes -11.6209
lfemur 4.37463 -5.26414 -23.4028
ltibia -9.54166e-015
lfoot -11.1188 16.3463
ltoes -13.2549
1577
root -0.00219813 18.211 0.0711707 5.55346 -4.28364 3.71701
lowerback 0.94378 1.72772 1.70026
upperback -5.19442 2.45241 1.3805
thorax -5.90102 1.17155 0.333807
lowerneck 3.80168 -2.70893 -5.04622
upperneck 0.451743 -3.80987 2.37562
head -0.353311 -1.92946 1.64019
rclavicle 1.37161e-014 9.54166e-015
rhumerus -88.7683 50.5474 -119.431
rradius 86.9138
rwrist -3.32782
rhand 4.7733 28.423
rfingers 7.12502
rthumb 30.1537 0.86367
lclavicle 1.37161e-014 9.54166e-015
lhumerus -28.4892 20.4988 19.5715
lradius 109.945
lwrist -14.8586
lhand -10.8781 35.2352
lfingers 7.12502
lthumb 15.1379 64.6616
rfemur -5.17408 11.2676 14.3966
rtibia 15.3482
rfoot -14.4507 -17.3835
rtoes -11.443
lfemur 4.38603 -5.3781 -23.4571
ltibia 1.59028e-015
lfoot -11.0707 16.3664
ltoes -13.5763
1578
root 0.00426973 18.2103 0.0689796 5.51243 -4.54961 3.71994
lowerback 1.01227 1.7781 1.86211
upperback -5.19384 2.53034 1.42009
thorax -5.93479 1.20296 0.277779
lowerneck 3.90484 -2.67991 -5.06012
upperneck 0.433686 -3.77763 2.27634
head -0.379157 -1.91282 1.61277
rclavicle 3.19049e-014 2.70347e-014
rhumerus -88.8067 50.5191 -119.39
rradius 86.9876
rwrist -3.46429
rhand 4.00417 28.4944
rfingers 7.12502
rthumb 29.4197 0.803644
lclavicle 3.19049e-014 2.70347e-014
lhumerus -28.59 20.4848 19.504
lradius 109.923
lwrist -14.9089
lhand -10.8083 35.3095
lfingers 7.12502
lthumb 15.2052 64.7308
rfemur -5.21022 11.3479 14.3285
rtibia 15.3473
rfoot -14.3683 -17.2495
rtoes -11.5759
lfemur 4.43718 -5.11751 -23.5098
ltibia -3.18055e-015
lfoot -11.197 16.3764
ltoes -13.5903
1579
root 0.011055 18.2095 0.0629329 5.46905 -4.99207 3.70368
lowerback 1.12669 1.88443 2.01088
upperback -5.18527 2.68387 1.45352
thorax -5.98588 1.27205 0.216448
lowerneck 3.91161 -2.65336 -5.08818
upperneck 0.458166 -3.7443 2.2223
head -0.374408 -1.89603 1.59982
rclavicle 2.67365e-014 2.70347e-014
rhumerus -88.8253 50.4906 -119.338
rradius 87.0911
rwrist -3.53848
rhand 2.754 28.5262
rfingers 7.12502
rthumb 28.2255 0.631845
lclavicle 2.67365e-014 2.70347e-014
lhumerus -28.6704 20.5006 19.4334
lradius 109.885
lwrist -14.9049
lhand -10.8 35.3262
lfingers 7.12502
lthumb 15.2132 64.7469
rfemur -5.31611 11.3428 14.2431
rtibia 15.3541
rfoot -14.2047 -16.8828
rtoes -12.0473
lfemur 4.48988 -4.67935 -23.5593
ltibia 3.18055e-015
lfoot -11.2879 16.3157
ltoes -12.9615
1580
root 0.0150342 18.2087 0.0596271 5.41058 -5.30987 3.67161
lowerback 1.22698 1.98673 2.18202
upperback -5.15268 2.8314 1.46984
thorax -6.00096 1.33703 0.125895
lowerneck 3.84044 -2.64619 -4.99985
upperneck 0.547349 -3.72828 2.11256
head -0.338543 -1.88769 1.54636
rclavicle 3.71727e-014 2.38542e-014
rhumerus -88.6795 50.367 -119.143
rradius 87.1367
rwrist -3.51249
rhand 2.0743 28.5459
rfingers 7.12502
rthumb 27.5756 0.545994
lclavicle 3.71727e-014 2.38542e-014
lhumerus -28.615 20.5254 19.4634
lradius 109.903
lwrist -14.8311
lhand -10.7821 35.3449
lfingers 7.12502
lthumb 15.2304 64.7643
rfemur -5.3623 11.4595 14.2237
rtibia 15.3778
rfoot -14.2212 -16.6597
rtoes -11.9496
lfemur 4.56692 -4.36299 -23.5657
ltibia -7.95139e-015
lfoot -11.3459 16.2583
ltoes -12.6117
1581
root 0.0190551 18.209 0.0604132 5.3425 -5.405 3.70961
lowerback 1.29731 2.02392 2.27451
upperback -5.12317 2.88778 1.48761
thorax -6.00623 1.36089 0.0871975
lowerneck 3.80808 -2.63722 -4.90163
upperneck 0.612661 -3.71146 1.97955
head -0.317299 -1.87868 1.48498
rclavicle -1.19271e-015 -6.36111e-015
rhumerus -88.5605 50.2064 -118.887
rradius 87.2289
rwrist -3.4784
rhand 1.96406 28.5369
rfingers 7.12502
rthumb 27.4702 0.520291
lclavicle -1.19271e-015 -6.36111e-015
lhumerus -28.5931 20.5007 19.5031
lradius 109.918
lwrist -14.7867
lhand -10.9713 35.4926
lfingers 7.12502
lthumb 15.0482 64.9257
rfemur -5.33363 11.4858 14.1765
rtibia 15.4228
rfoot -14.2668 -16.6106
rtoes -12.0847
lfemur 4.64586 -4.27396 -23.6327
ltibia 1.11319e-014
lfoot -11.3692 16.2838
ltoes -12.911
